<svg xmlns="http://www.w3.org/2000/svg" width="226.66" height="70.48" viewBox="0 0 226.66 70.48"><defs><style>.cls-1{fill:#396452;}.cls-2{fill:#a09489;}</style></defs><title>Asset 1</title><g id="Layer_2" data-name="Layer 2"><g id="Layer_1-2" data-name="Layer 1"><rect class="cls-1" y="12.48" width="21.94" height="36.15"/><rect class="cls-1" x="25.33" y="12.48" width="22.03" height="36.15"/><rect class="cls-2" x="0.11" width="47.25" height="9.28"/><rect class="cls-2" y="51.79" width="47.35" height="7.01"/><rect class="cls-2" y="62.01" width="47.35" height="3.5"/><rect class="cls-2" y="68.73" width="47.35" height="1.75"/><path d="M70.23,12.45v7H60.65v7.28h8.86v6.88H60.65v7.9h9.58v6.93H50.57v-36Z"/><path d="M81.84,12.45v20L87,21.26h9.37L89.94,33.59l7.69,14.82h-10L81.84,35.47V48.41H72.57v-36Z"/><path d="M99.16,12.45h9.58v36H99.16Z"/><path d="M135.23,21.26V48.41H125.6V45.66A7.93,7.93,0,0,1,118.77,49c-6.88,0-6.88-6.42-6.88-8.61V21.26h9.57V41c0,1,0,2.7,2,2.7S125.6,42,125.6,41V21.26Z"/><path d="M161.76,48.41h-9.68V29c0-.81,0-2.55-1.93-2.55C148,26.46,148,28.24,148,29V48.41h-9.63V21.26H148V24a7.67,7.67,0,0,1,6.42-3.26,7.13,7.13,0,0,1,6,2.7c1.33,1.78,1.38,4.07,1.38,6.52Z"/><path d="M188.3,12.45v36h-9.67V45.26c-.77,1.43-2,3.72-6.47,3.72-7.54,0-7.54-5.24-7.54-8.61V29c0-4.18.92-8.2,7.13-8.2,4.58,0,6.11,2,6.88,3.46V12.45ZM178.63,28.8c0-.71,0-2.19-2.19-2.19S174.3,28,174.3,28.8V41.28c0,.87,0,2.19,2.24,2.19,2.09,0,2.09-1.58,2.09-2.29Z"/><path d="M212.75,40.31c0,2.54,0,3.77,2.19,3.77a1.83,1.83,0,0,0,2-2.09c0-1.32-.35-1.48-3.87-3.05-7-3.16-9.53-4.38-9.53-10,0-3.21.82-5.91,4.74-7.28a25.41,25.41,0,0,1,6.93-.92,19.63,19.63,0,0,1,6.93,1.07c4,1.68,4,4.33,4,7.69h-9.17c0-2.34,0-3.72-2.14-3.72a1.75,1.75,0,0,0-2,2,2.22,2.22,0,0,0,.46,1.43c.41.51.71.61,3.36,1.84,7.28,3.31,10.08,4.58,10.08,9.57,0,8.15-7.89,8.51-11.61,8.51a19.82,19.82,0,0,1-7.38-1c-4.54-1.73-4.54-5-4.54-7.79Z"/><rect x="191.82" y="12.45" width="8.91" height="0.64"/><rect x="191.82" y="14.26" width="8.91" height="1.75"/><polygon points="191.82 17.57 191.82 20.86 195.43 20.86 193.09 28.7 196.3 28.7 200.73 20.86 200.73 17.57 191.82 17.57"/><path d="M54.85,55.29v1.8h2v1h-2v4.05c0,.93.26,1.46,1,1.46a2.61,2.61,0,0,0,.79-.09l.06,1a3.71,3.71,0,0,1-1.21.19A2,2,0,0,1,54,64.21a2.93,2.93,0,0,1-.53-2v-4.1H52.35v-1h1.16V55.71Z"/><path d="M61.31,64.78a3.58,3.58,0,0,1-3.6-3.87,3.68,3.68,0,0,1,3.73-4,3.55,3.55,0,0,1,3.62,3.85,3.68,3.68,0,0,1-3.73,4Zm0-1c1.3,0,2.28-1.23,2.28-2.94,0-1.27-.64-2.87-2.25-2.87s-2.3,1.49-2.3,2.92c0,1.65.93,2.89,2.25,2.89Z"/><path d="M68.42,55.29v1.8h2v1h-2v4.05c0,.93.26,1.46,1,1.46a2.61,2.61,0,0,0,.79-.09l.06,1a3.7,3.7,0,0,1-1.21.19,2,2,0,0,1-1.48-.58,2.93,2.93,0,0,1-.53-2v-4.1H65.92v-1h1.16V55.71Z"/><path d="M77.21,62.81a12.6,12.6,0,0,0,.11,1.8H76.09L76,63.66h0a2.78,2.78,0,0,1-2.3,1.12,2.14,2.14,0,0,1-2.3-2.16c0-1.82,1.62-2.81,4.52-2.79v-.16a1.54,1.54,0,0,0-1.71-1.74,3.62,3.62,0,0,0-2,.56l-.31-.92a4.86,4.86,0,0,1,2.48-.65c2.31,0,2.87,1.57,2.87,3.07Zm-1.34-2c-1.49,0-3.18.23-3.18,1.69A1.2,1.2,0,0,0,74,63.77a1.9,1.9,0,0,0,1.85-1.26,1.41,1.41,0,0,0,.06-.44Z"/><path d="M79.4,53.59h1.37v11H79.4Z"/><path d="M87.1,61.09a2.4,2.4,0,0,0,2.56,2.61,5.16,5.16,0,0,0,2.08-.37l.25,1a6.1,6.1,0,0,1-2.52.48A3.51,3.51,0,0,1,85.78,61c0-2.28,1.35-4.07,3.54-4.07,2.45,0,3.09,2.16,3.09,3.54a3.48,3.48,0,0,1,0,.65Zm4-1a2,2,0,0,0-1.88-2.22,2.25,2.25,0,0,0-2.1,2.22Z"/><path d="M94.1,53.59h1.37v11H94.1Z"/><path d="M98.51,61.09a2.4,2.4,0,0,0,2.56,2.61,5.16,5.16,0,0,0,2.08-.37l.25,1a6.1,6.1,0,0,1-2.52.48A3.51,3.51,0,0,1,97.19,61c0-2.28,1.35-4.07,3.54-4.07,2.45,0,3.09,2.16,3.09,3.54a3.46,3.46,0,0,1,0,.65Zm4-1a2,2,0,0,0-1.88-2.22,2.25,2.25,0,0,0-2.1,2.22Z"/><path d="M106,57.1l1.47,4.21c.25.7.45,1.32.61,1.94h0c.17-.62.39-1.24.64-1.94l1.46-4.21h1.43l-3,7.52h-1.3l-2.86-7.52Z"/><path d="M118,62.81a12.52,12.52,0,0,0,.11,1.8h-1.23l-.12-.95h0a2.78,2.78,0,0,1-2.3,1.12,2.14,2.14,0,0,1-2.3-2.16c0-1.82,1.62-2.81,4.52-2.79v-.16A1.54,1.54,0,0,0,115,57.94a3.62,3.62,0,0,0-2,.56l-.31-.92a4.86,4.86,0,0,1,2.48-.65c2.31,0,2.87,1.57,2.87,3.07Zm-1.33-2c-1.49,0-3.18.23-3.18,1.69a1.2,1.2,0,0,0,1.27,1.3,1.9,1.9,0,0,0,1.85-1.26,1.43,1.43,0,0,0,.06-.44Z"/><path d="M121.8,55.29v1.8h2v1h-2v4.05c0,.93.26,1.46,1,1.46a2.61,2.61,0,0,0,.79-.09l.06,1a3.7,3.7,0,0,1-1.21.19,2,2,0,0,1-1.47-.58,2.93,2.93,0,0,1-.53-2v-4.1H119.3v-1h1.17V55.71Z"/><path d="M128.26,64.78a3.58,3.58,0,0,1-3.6-3.87,3.68,3.68,0,0,1,3.73-4A3.55,3.55,0,0,1,132,60.78a3.68,3.68,0,0,1-3.73,4Zm0-1c1.3,0,2.28-1.23,2.28-2.94,0-1.27-.64-2.87-2.25-2.87s-2.3,1.49-2.3,2.92c0,1.65.93,2.89,2.25,2.89Z"/><path d="M133.74,59.44c0-.88,0-1.65-.06-2.35h1.2l.06,1.48h0a2.27,2.27,0,0,1,2.1-1.65,1.43,1.43,0,0,1,.37,0v1.27a4.4,4.4,0,0,0-.48,0A1.91,1.91,0,0,0,135.14,60a4.28,4.28,0,0,0,0,.65v4h-1.37Z"/><path d="M147.45,64.35a5.26,5.26,0,0,1-2.16.44,3.57,3.57,0,0,1-3.74-3.85,3.83,3.83,0,0,1,4-4,4.32,4.32,0,0,1,1.89.4l-.31,1a3.36,3.36,0,0,0-1.58-.36,2.61,2.61,0,0,0-2.66,2.86,2.58,2.58,0,0,0,2.61,2.81,3.9,3.9,0,0,0,1.68-.36Z"/><path d="M154.36,62.81a12.52,12.52,0,0,0,.11,1.8h-1.23l-.12-.95h0a2.78,2.78,0,0,1-2.3,1.12,2.14,2.14,0,0,1-2.3-2.16c0-1.82,1.62-2.81,4.52-2.79v-.16a1.54,1.54,0,0,0-1.71-1.74,3.62,3.62,0,0,0-2,.56l-.31-.92a4.86,4.86,0,0,1,2.48-.65c2.31,0,2.87,1.57,2.87,3.07Zm-1.33-2c-1.49,0-3.18.23-3.18,1.69a1.2,1.2,0,0,0,1.27,1.3A1.9,1.9,0,0,0,153,62.52a1.43,1.43,0,0,0,.06-.44Z"/><path d="M156.55,53.59h1.37v4.71h0a2.79,2.79,0,0,1,2.56-1.37c1.86,0,3.17,1.55,3.17,3.82,0,2.7-1.71,4-3.38,4a2.69,2.69,0,0,1-2.52-1.41h0l-.08,1.24h-1.18c0-.51.06-1.27.06-1.94Zm1.37,8a2.54,2.54,0,0,0,0,.5,2.12,2.12,0,0,0,2,1.6c1.44,0,2.28-1.16,2.28-2.89,0-1.52-.78-2.81-2.24-2.81A2.17,2.17,0,0,0,158,59.67a2.13,2.13,0,0,0-.08.57Z"/><path d="M168.49,63.23a3.86,3.86,0,0,0,1.82.53c1,0,1.44-.48,1.44-1.12s-.39-1-1.38-1.38c-1.37-.5-2-1.23-2-2.13A2.33,2.33,0,0,1,171,56.93a3.49,3.49,0,0,1,1.83.46l-.33,1a3.08,3.08,0,0,0-1.54-.43c-.81,0-1.24.46-1.24,1s.43.92,1.41,1.29c1.29.48,2,1.13,2,2.27,0,1.34-1,2.27-2.8,2.27a4.29,4.29,0,0,1-2.11-.53Z"/><path d="M177.88,64.78a3.58,3.58,0,0,1-3.6-3.87,3.68,3.68,0,0,1,3.73-4,3.55,3.55,0,0,1,3.62,3.85,3.68,3.68,0,0,1-3.73,4Zm0-1c1.3,0,2.28-1.23,2.28-2.94,0-1.27-.64-2.87-2.25-2.87s-2.3,1.49-2.3,2.92c0,1.65.93,2.89,2.25,2.89Z"/><path d="M183.34,53.59h1.37v11h-1.37Z"/><path d="M193.27,62.56c0,.78,0,1.46.06,2h-1.21L192,63.38h0a2.81,2.81,0,0,1-2.48,1.4c-1.18,0-2.59-.67-2.59-3.29V57.1h1.37v4.15c0,1.43.45,2.41,1.68,2.41a2,2,0,0,0,1.8-1.26,1.85,1.85,0,0,0,.12-.7V57.1h1.37Z"/><path d="M197.18,55.29v1.8h2v1h-2v4.05c0,.93.26,1.46,1,1.46a2.6,2.6,0,0,0,.79-.09l.06,1a3.7,3.7,0,0,1-1.21.19,2,2,0,0,1-1.47-.58,2.93,2.93,0,0,1-.53-2v-4.1h-1.16v-1h1.16V55.71Z"/><path d="M201.32,55.71a.88.88,0,0,1,0-1.76.84.84,0,0,1,.87.87.86.86,0,0,1-.88.88Zm-.65,8.9V57.1H202v7.52Z"/><path d="M207.36,64.78a3.58,3.58,0,0,1-3.6-3.87,3.68,3.68,0,0,1,3.73-4,3.55,3.55,0,0,1,3.62,3.85,3.68,3.68,0,0,1-3.73,4Zm0-1c1.3,0,2.28-1.23,2.28-2.94,0-1.27-.64-2.87-2.25-2.87s-2.3,1.49-2.3,2.92c0,1.65.93,2.89,2.25,2.89Z"/><path d="M212.83,59.13c0-.79,0-1.41-.06-2H214l.08,1.23h0a2.79,2.79,0,0,1,2.48-1.4c1,0,2.66.62,2.66,3.2v4.49h-1.37V60.28c0-1.21-.45-2.24-1.74-2.24a2,2,0,0,0-1.83,1.4,2,2,0,0,0-.09.64v4.53h-1.37Z"/><path d="M221.26,63.23a3.86,3.86,0,0,0,1.82.53c1,0,1.44-.48,1.44-1.12s-.39-1-1.38-1.38c-1.37-.5-2-1.23-2-2.13a2.33,2.33,0,0,1,2.59-2.21,3.49,3.49,0,0,1,1.83.46l-.33,1a3.09,3.09,0,0,0-1.54-.43c-.81,0-1.24.46-1.24,1s.43.92,1.41,1.29c1.29.48,2,1.13,2,2.27,0,1.34-1,2.27-2.8,2.27a4.28,4.28,0,0,1-2.11-.53Z"/></g></g></svg>